{"title":"Top Chef S06E04 HDTV XviD-DODECAHEDRON avi [Dodecahedron]","uid":5084746,"size":367153152,"categoryP":"video","categoryS":"tv_shows","magnet":"?xt=urn:btih:d8fee2ab7e55f3e8a44a34a694941d2cc6624f49&amp;dn=Top+Chef+S06E04+HDTV+XviD-DODECAHEDRON+avi+%5BDodecahedron%5D&amp;tr=udp%3A%2F%2Ftracker.openbittorrent.com%3A80&amp;tr=udp%3A%2F%2Fopen.demonii.com%3A1337&amp;tr=udp%3A%2F%2Ftracker.coppersurfer.tk%3A6969&amp;tr=udp%3A%2F%2Fexodus.desync.com%3A6969","seeders":0,"leechers":0,"uploader":"Dodecahedron9","files":1,"time":1252625152,"description":"Top.Chef.S06E04.HDTV.XviD-DODECAHEDRON (350 MB)\n\nTop Chef Season 6, Episode 4 - Vivre Las Vegas\n \nThe contestants must tap into their traditional cooking skills when they're asked to show their mastery of French cuisine, and as if that's not stress enough tonight's judges are some of the biggest names in the industry: Daniel Boulud, Hubert Keller, Joel Robuchon and Jean Joho. \n\n--\nNote: Apparently no one plans to release a 350MB version for this weeks' episode so here is mine. Info:\n\n\n   General\n      Format : AVI\n      Format/Info : Audio Video Interleave\n      File size : 350 MiB\n      Duration : 54mn 59s\n      Overall bit rate : 890 Kbps\n      Writing application : VirtualDubMod 1.5.4.1 (build 2178/release)\n      Writing library : VirtualDubMod build 2178/release\n\n   Video\n      Format : MPEG-4 Visual\n      Format profile : Streaming Video@L1\n      Format settings, BVOP : Yes\n      Format settings, QPel : No\n      Format settings, GMC : No warppoints\n      Format settings, Matrix : Custom\n      Codec ID : XVID\n      Codec ID/Hint : XviD\n      Duration : 54mn 59s\n      Bit rate : 751 Kbps\n      Width : 608 pixels\n      Height : 352 pixels\n      Display aspect ratio : 16/9\n      Frame rate : 23.976 fps\n      Resolution : 8 bits\n      Colorimetry : 4:2:0\n      Scan type : Progressive\n      Bits/(Pixel*Frame) : 0.146\n      Stream size : 295 MiB (84%)\n      Writing library : XviD 50\n\n   Audio\n      Format : MPEG Audio\n      Format version : Version 1\n      Format profile : Layer 3\n      Codec ID : 55\n      Codec ID/Hint : MP3\n      Duration : 54mn 59s\n      Bit rate mode : Variable\n      Bit rate : 127 Kbps\n      Nominal bit rate : 128 Kbps\n      Channel(s) : 2 channels\n      Sampling rate : 48.0 KHz\n      Resolution : 16 bits\n      Stream size : 49.9 MiB (14%)\n      Alignment : Aligned on interleaves\n      Interleave, duration : 24 ms (0.58 video frame)\n      Interleave, preload duration : 550 ms\n      Writing library : LAME3.92 \n      Encoding settings : ABR\n\n\n\n","torrent":{"xt":"urn:btih:d8fee2ab7e55f3e8a44a34a694941d2cc6624f49","amp;dn":"Top+Chef+S06E04+HDTV+XviD-DODECAHEDRON+avi+%5BDodecahedron%5D","amp;tr":["udp%3A%2F%2Ftracker.openbittorrent.com%3A80","udp%3A%2F%2Fopen.demonii.com%3A1337","udp%3A%2F%2Ftracker.coppersurfer.tk%3A6969","udp%3A%2F%2Fexodus.desync.com%3A6969"],"infoHash":"d8fee2ab7e55f3e8a44a34a694941d2cc6624f49","infoHashBuffer":{"type":"Buffer","data":[216,254,226,171,126,85,243,232,164,74,52,166,148,148,29,44,198,98,79,73]},"announce":[],"urlList":[]}}